<?xml version="1.0" encoding="iso-8859-1"?>
<!-- Generator: Adobe Illustrator 19.0.0, SVG Export Plug-In . SVG Version: 6.00 Build 0)  -->
<svg version="1.1" id="Layer_1" xmlns="http://www.w3.org/2000/svg" xmlns:xlink="http://www.w3.org/1999/xlink" x="0px" y="0px"
	 viewBox="0 0 512 512" style="enable-background:new 0 0 512 512;" xml:space="preserve">
<path style="fill:#BDC5CC;" d="M256,77.913c-9.217,0-16.696-7.473-16.696-16.696V16.696C239.304,7.473,246.783,0,256,0
	s16.696,7.473,16.696,16.696v44.522C272.696,70.44,265.217,77.913,256,77.913z"/>
<path style="fill:#8FA3B3;" d="M272.696,61.217V16.696C272.696,7.473,265.217,0,256,0v77.913
	C265.217,77.913,272.696,70.44,272.696,61.217z"/>
<path style="fill:#D5DEE6;" d="M372.87,166.957H139.13v-5.565c0-64.545,52.324-116.87,116.87-116.87l0,0
	c64.545,0,116.87,52.324,116.87,116.87V166.957z"/>
<path style="fill:#B8CBD9;" d="M372.87,166.957v-5.565c0-64.545-52.323-116.87-116.87-116.87v122.435H372.87z"/>
<rect x="139.13" y="155.826" style="fill:#D5DEE6;" width="233.739" height="111.304"/>
<rect x="256" y="155.826" style="fill:#B8CBD9;" width="116.87" height="111.304"/>
<path style="fill:#D5DEE6;" d="M121.468,512H17.663C7.924,512,0,504.076,0,494.337V361.739c0-27.619,22.468-50.087,50.087-50.087
	h71.381c9.739,0,17.663,7.924,17.663,17.663v165.022C139.13,504.076,131.207,512,121.468,512z M121.468,345.043h0.109H121.468z"/>
<path style="fill:#B8CBD9;" d="M495.304,512H390.532c-9.739,0-17.663-7.924-17.663-17.663V329.315
	c0-9.739,7.924-17.663,17.663-17.663h71.381c27.619,0,50.087,22.468,50.087,50.087v133.565C512,504.527,504.521,512,495.304,512z"/>
<path style="fill:#E6EEFF;" d="M406.261,512H105.739V262.532c0-9.755,7.908-17.663,17.663-17.663h265.196
	c9.755,0,17.663,7.908,17.663,17.663L406.261,512L406.261,512z"/>
<path style="fill:#CFDCE6;" d="M388.598,244.87H256V512h150.261V262.532C406.261,252.778,398.353,244.87,388.598,244.87z"/>
<path style="fill:#E6EEFF;" d="M389.565,178.087h-267.13c-9.217,0-16.696-7.473-16.696-16.696s7.479-16.696,16.696-16.696h267.13
	c9.217,0,16.696,7.473,16.696,16.696S398.782,178.087,389.565,178.087z"/>
<path style="fill:#7F838C;" d="M222.609,278.261c-9.217,0-16.696-7.473-16.696-16.696v-33.391c0-9.223,7.479-16.696,16.696-16.696
	s16.696,7.473,16.696,16.696v33.391C239.304,270.788,231.826,278.261,222.609,278.261z"/>
<path style="fill:#757982;" d="M289.391,278.261c-9.217,0-16.696-7.473-16.696-16.696v-33.391c0-9.223,7.479-16.696,16.696-16.696
	c9.217,0,16.696,7.473,16.696,16.696v33.391C306.087,270.788,298.608,278.261,289.391,278.261z"/>
<path style="fill:#E6EEFF;" d="M422.957,278.261H89.043c-9.217,0-16.696-7.473-16.696-16.696c0-9.223,7.479-16.696,16.696-16.696
	h333.913c9.217,0,16.696,7.473,16.696,16.696C439.652,270.788,432.174,278.261,422.957,278.261z"/>
<g>
	<rect x="239.304" y="278.261" style="fill:#A1A7B3;" width="33.391" height="233.739"/>
	<rect x="172.522" y="278.261" style="fill:#A1A7B3;" width="33.391" height="233.739"/>
</g>
<rect x="306.087" y="278.261" style="fill:#979CA7;" width="33.391" height="233.739"/>
<g>
	<path style="fill:#CFDCE6;" d="M389.565,144.696H256v33.391h133.565c9.217,0,16.696-7.473,16.696-16.696
		S398.782,144.696,389.565,144.696z"/>
	<path style="fill:#CFDCE6;" d="M422.957,244.87H256v33.391h166.957c9.217,0,16.696-7.473,16.696-16.696
		C439.652,252.343,432.174,244.87,422.957,244.87z"/>
</g>
<rect x="256" y="278.261" style="fill:#979CA7;" width="16.696" height="233.739"/>
<g>
</g>
<g>
</g>
<g>
</g>
<g>
</g>
<g>
</g>
<g>
</g>
<g>
</g>
<g>
</g>
<g>
</g>
<g>
</g>
<g>
</g>
<g>
</g>
<g>
</g>
<g>
</g>
<g>
</g>
</svg>
