<?xml version="1.0" encoding="iso-8859-1"?>
<!-- Generator: Adobe Illustrator 19.0.0, SVG Export Plug-In . SVG Version: 6.00 Build 0)  -->
<svg version="1.1" id="Layer_1" xmlns="http://www.w3.org/2000/svg" xmlns:xlink="http://www.w3.org/1999/xlink" x="0px" y="0px"
	 viewBox="0 0 173.974 173.974" style="enable-background:new 0 0 173.974 173.974;" xml:space="preserve">
<g>
	<g>
		<g>
			<path d="M89.028,22.156c-1.357-1.357-3.556-1.357-4.913,0L32.288,73.984c-1.357,1.357-1.357,3.556,0,4.913
				c0.679,0.678,1.567,1.018,2.457,1.018c0.889,0,1.778-0.339,2.457-1.018l51.827-51.829C90.386,25.712,90.386,23.513,89.028,22.156
				z"/>
			<path d="M81.652,52.119c-7.665,0-13.898,6.235-13.898,13.898c0,7.663,6.233,13.898,13.898,13.898
				c7.665,0,13.898-6.235,13.898-13.898C95.55,58.354,89.317,52.119,81.652,52.119z M81.652,72.966
				c-3.831,0-6.949-3.117-6.949-6.949c0-3.832,3.118-6.949,6.949-6.949c3.831,0,6.949,3.117,6.949,6.949
				C88.601,69.849,85.483,72.966,81.652,72.966z"/>
			<path d="M53.855,34.746c0-7.664-6.233-13.898-13.898-13.898c-7.665,0-13.898,6.235-13.898,13.898
				c0,7.663,6.233,13.898,13.898,13.898C47.622,48.644,53.855,42.409,53.855,34.746z M33.008,34.746
				c0-3.832,3.118-6.949,6.949-6.949c3.831,0,6.949,3.117,6.949,6.949c0,3.832-3.118,6.949-6.949,6.949
				C36.126,41.695,33.008,38.578,33.008,34.746z"/>
			<path d="M166.009,143.476c-1.357-1.357-3.556-1.357-4.913,0l-18.638,18.637V55.593v-3.475v-3.475h-31.271V31.288
				C111.186,14.036,97.148,0,79.897,0h-41.66C20.986,0,6.948,14.036,6.948,31.288v41.661c0,17.252,14.037,31.288,31.288,31.288
				h41.661c17.251,0,31.288-14.036,31.288-31.288V55.593h24.322v106.519l-18.639-18.637c-1.357-1.357-3.556-1.357-4.913,0
				c-1.358,1.357-1.357,3.556,0,4.913l24.57,24.568c0.679,0.679,1.568,1.018,2.457,1.018c0.889,0,1.778-0.339,2.457-1.018
				l24.57-24.568C167.366,147.032,167.366,144.833,166.009,143.476z M104.237,48.644v6.949v17.356
				c0,13.42-10.919,24.339-24.339,24.339H38.237c-13.42,0-24.339-10.919-24.339-24.339V31.288c0-13.42,10.919-24.339,24.339-24.339
				h41.661c13.42,0,24.339,10.919,24.339,24.339V48.644z"/>
		</g>
	</g>
</g>
<g>
</g>
<g>
</g>
<g>
</g>
<g>
</g>
<g>
</g>
<g>
</g>
<g>
</g>
<g>
</g>
<g>
</g>
<g>
</g>
<g>
</g>
<g>
</g>
<g>
</g>
<g>
</g>
<g>
</g>
</svg>
