<?xml version="1.0" encoding="iso-8859-1"?>
<!-- Generator: Adobe Illustrator 19.0.0, SVG Export Plug-In . SVG Version: 6.00 Build 0)  -->
<svg version="1.1" id="Layer_1" xmlns="http://www.w3.org/2000/svg" xmlns:xlink="http://www.w3.org/1999/xlink" x="0px" y="0px"
	 viewBox="0 0 395.636 395.636" style="enable-background:new 0 0 395.636 395.636;" xml:space="preserve">
<rect x="6.206" y="6.206" style="fill:#FFFFFF;" width="191.612" height="383.289"/>
<rect x="57.471" y="280.63" style="fill:#2EA2DB;" width="89.018" height="108.8"/>
<polyline style="fill:#FFFFFF;" points="197.818,111.257 197.818,389.43 389.43,389.43 389.43,111.257 197.818,111.257 "/>
<path style="fill:#193651;" d="M204.024,105.115V0H0v395.636h395.636V105.115H204.024z M140.347,383.289H63.677v-96.453h76.671
	V383.289z M191.612,383.289h-38.917v-108.8H51.329v108.8H12.347V12.347h179.265V383.289z M383.289,383.289H204.024V117.463h179.265
	V383.289z"/>
<g>
	<rect x="37.689" y="34.651" style="fill:#2EA2DB;" width="128.582" height="24.113"/>
	<rect x="37.689" y="80.356" style="fill:#2EA2DB;" width="128.582" height="24.113"/>
	<rect x="37.689" y="126.707" style="fill:#2EA2DB;" width="128.582" height="24.113"/>
	<rect x="37.689" y="172.477" style="fill:#2EA2DB;" width="128.582" height="24.113"/>
	<rect x="37.689" y="218.828" style="fill:#2EA2DB;" width="128.582" height="24.113"/>
	<rect x="222.578" y="325.172" style="fill:#2EA2DB;" width="34.586" height="34.586"/>
	<rect x="222.578" y="201.503" style="fill:#2EA2DB;" width="34.586" height="34.586"/>
	<rect x="222.578" y="263.37" style="fill:#2EA2DB;" width="34.586" height="34.586"/>
	<rect x="222.578" y="139.701" style="fill:#2EA2DB;" width="34.586" height="34.651"/>
	<rect x="276.299" y="325.172" style="fill:#2EA2DB;" width="34.586" height="34.586"/>
	<rect x="276.299" y="201.503" style="fill:#2EA2DB;" width="34.586" height="34.586"/>
	<rect x="276.299" y="263.37" style="fill:#2EA2DB;" width="34.586" height="34.586"/>
	<rect x="276.299" y="139.701" style="fill:#2EA2DB;" width="34.586" height="34.651"/>
	<rect x="330.085" y="325.172" style="fill:#2EA2DB;" width="34.586" height="34.586"/>
	<rect x="330.085" y="201.503" style="fill:#2EA2DB;" width="34.586" height="34.586"/>
	<rect x="330.085" y="263.37" style="fill:#2EA2DB;" width="34.586" height="34.586"/>
	<rect x="330.085" y="139.701" style="fill:#2EA2DB;" width="34.586" height="34.651"/>
</g>
<g>
</g>
<g>
</g>
<g>
</g>
<g>
</g>
<g>
</g>
<g>
</g>
<g>
</g>
<g>
</g>
<g>
</g>
<g>
</g>
<g>
</g>
<g>
</g>
<g>
</g>
<g>
</g>
<g>
</g>
</svg>
