<?xml version="1.0" encoding="iso-8859-1"?>
<!-- Generator: Adobe Illustrator 19.0.0, SVG Export Plug-In . SVG Version: 6.00 Build 0)  -->
<svg version="1.1" id="Layer_1" xmlns="http://www.w3.org/2000/svg" xmlns:xlink="http://www.w3.org/1999/xlink" x="0px" y="0px"
	 viewBox="0 0 173.976 173.976" style="enable-background:new 0 0 173.976 173.976;" xml:space="preserve">
<g>
	<g>
		<g>
			<path d="M89.321,91.605c-1.357-1.357-3.556-1.357-4.913,0l-51.826,51.829c-1.357,1.357-1.357,3.556,0,4.913
				c0.679,0.679,1.568,1.018,2.457,1.018s1.778-0.339,2.457-1.018l51.827-51.829C90.678,95.16,90.678,92.962,89.321,91.605z"/>
			<path d="M53.856,104.485c0-7.664-6.233-13.898-13.898-13.898S26.06,96.822,26.06,104.485c0,7.663,6.233,13.898,13.898,13.898
				S53.856,112.148,53.856,104.485z M33.008,104.485c0-3.832,3.118-6.949,6.949-6.949c3.831,0,6.949,3.117,6.949,6.949
				c0,3.832-3.118,6.949-6.949,6.949C36.126,111.434,33.008,108.317,33.008,104.485z"/>
			<path d="M81.653,121.858c-7.665,0-13.898,6.235-13.898,13.898c0,7.663,6.233,13.898,13.898,13.898
				c7.665,0,13.898-6.235,13.898-13.898C95.551,128.093,89.318,121.858,81.653,121.858z M81.653,142.705
				c-3.831,0-6.949-3.117-6.949-6.949c0-3.832,3.118-6.949,6.949-6.949s6.949,3.117,6.949,6.949
				C88.602,139.588,85.483,142.705,81.653,142.705z"/>
			<path d="M166.009,25.588l-24.57-24.57c-1.357-1.357-3.556-1.357-4.913,0l-24.57,24.57c-1.357,1.357-1.357,3.556,0,4.913
				c1.357,1.358,3.556,1.357,4.913,0l18.639-18.639v106.521h-24.322v-17.356c0-17.252-14.037-31.288-31.288-31.288H38.237
				c-17.251,0-31.288,14.036-31.288,31.288v41.661c0,17.252,14.037,31.288,31.288,31.288h41.661
				c17.251,0,31.288-14.036,31.288-31.288v-17.356h31.271v-3.475v-3.475V11.862l18.639,18.639c0.679,0.679,1.568,1.018,2.457,1.018
				c0.889,0,1.778-0.339,2.457-1.018C167.367,29.144,167.367,26.945,166.009,25.588z M104.237,118.383v6.949v17.356
				c0,13.42-10.919,24.339-24.339,24.339H38.237c-13.42,0-24.339-10.919-24.339-24.339v-41.661c0-13.42,10.919-24.339,24.339-24.339
				h41.661c13.42,0,24.339,10.919,24.339,24.339V118.383z"/>
		</g>
	</g>
</g>
<g>
</g>
<g>
</g>
<g>
</g>
<g>
</g>
<g>
</g>
<g>
</g>
<g>
</g>
<g>
</g>
<g>
</g>
<g>
</g>
<g>
</g>
<g>
</g>
<g>
</g>
<g>
</g>
<g>
</g>
</svg>
